<svg width="14" height="18" viewBox="0 0 14 18" fill="none" xmlns="http://www.w3.org/2000/svg">
<path d="M11.6492 1.52992C11.4292 12.6092 6.74951 16.089 6.74951 16.089C11.9492 11.8593 12.8991 2.41986 13.0491 0.569977L11.6492 1.52992Z" fill="#009B4C"/>
<path d="M11.2493 1.80988L9.41941 3.0798C8.79945 5.56964 7.16955 10.5493 3.85976 11.3293C2.18986 11.7193 0.809949 10.5693 0 9.61939C0.0599962 9.88937 0.909943 13.5791 5.24967 17.0289C5.24967 17.0289 5.24967 17.0289 5.25967 17.0289C5.26967 17.0189 5.31967 16.9989 5.38966 16.9589C5.73964 16.7689 6.07962 16.559 6.3996 16.339C7.19955 15.609 11.0593 11.5893 11.2493 1.80988Z" fill="#054586"/>
<path d="M13.5291 0.219986C13.3791 2.01987 12.4692 11.4893 6.78955 16.059C13.4891 11.0293 13.8491 0 13.8491 0L13.5291 0.219986Z" fill="#054586"/>
</svg>
