<svg width="150" height="29" viewBox="0 0 150 29" fill="none" xmlns="http://www.w3.org/2000/svg">
<path d="M51.0601 10.2695H46.445L41.6743 25.6385H45.6153L46.082 24.0861H51.4231L51.9416 25.6385H55.8307L51.0601 10.2695ZM47.2747 20.3085L48.7785 15.4443L50.2304 20.3085H47.2747Z" fill="#054586"/>
<path d="M79.3218 10.2695H74.7067L69.936 25.6385H73.877L74.3437 24.0861H79.6848L80.2033 25.6385H84.0925L79.3218 10.2695ZM75.5364 20.3085L77.0402 15.4443L78.4921 20.3085H75.5364Z" fill="#054586"/>
<path d="M93.9449 10.2179V17.566L87.0481 10.2179H86.1147V14.5129V25.7938H89.7446V18.394L96.6413 25.7938H97.3154H97.5747V21.4471V10.2179H93.9449Z" fill="#054586"/>
<path d="M37.5262 17.9799C38.667 17.5142 39.9634 16.4792 39.9634 14.3576C39.9634 10.6318 35.8668 10.2695 35.8668 10.2695H33.1704H31.3555H29.5405V26.0007H31.3555H35.7631C35.7631 26.0007 39.9634 25.6902 39.9634 21.7574C39.9634 19.584 38.6152 18.4974 37.5262 17.9799ZM34.7779 22.3267H33.2222V19.4806H34.8297C34.8297 19.4806 36.2298 19.584 36.2298 20.9295C36.2298 22.2232 34.7779 22.3267 34.7779 22.3267ZM34.7779 16.3757H33.2222V13.5296H34.8297C34.8297 13.5296 36.2298 13.6331 36.2298 14.9785C36.2298 16.2722 34.7779 16.3757 34.7779 16.3757Z" fill="#054586"/>
<path d="M61.5871 10.2696H61.4834H59.6684H57.8535V26.0008H59.6684H61.4834C61.4834 26.0008 69.3135 26.363 69.3135 17.8765C69.3135 10.1661 61.5871 10.2696 61.5871 10.2696ZM61.5352 21.7575V14.1507C61.5352 14.1507 65.4243 13.8402 65.4243 17.9282C65.4243 22.0162 61.5352 21.7575 61.5352 21.7575Z" fill="#054586"/>
<path d="M147.926 10.3213H144.4L141.703 17.0485L139.007 10.3213H135.532L133.406 26.0008H137.71C137.71 26.0008 138.436 19.2219 138.436 18.7561C138.488 19.1701 141.496 25.6385 141.703 26.0008C141.703 26.0008 144.918 19.1701 144.97 18.7561C144.97 19.2219 145.696 26.0008 145.696 26.0008H150L147.926 10.3213Z" fill="#009B4C"/>
<path d="M108.152 10.2696H106.337H104.522V26.0008H106.337H108.204V21.6023C108.204 21.6023 114.945 22.0163 114.945 15.9101C114.945 9.95913 108.152 10.2696 108.152 10.2696ZM109.501 17.566H108.204V13.5297H109.552C109.552 13.5297 111.212 13.6849 111.212 15.5478C111.212 17.4107 109.501 17.566 109.501 17.566Z" fill="#009B4C"/>
<path d="M124.486 10.2695C120.182 10.2695 116.656 13.7883 116.656 18.1351C116.656 22.4819 120.182 25.949 124.486 25.949C128.842 25.949 132.368 22.4819 132.368 18.1351C132.368 13.7883 128.842 10.2695 124.486 10.2695ZM124.486 22.0679C122.308 22.0679 120.545 20.3085 120.545 18.1351C120.545 15.9617 122.308 14.1506 124.486 14.1506C126.716 14.1506 128.479 15.9617 128.479 18.1351C128.479 20.3085 126.716 22.0679 124.486 22.0679Z" fill="#009B4C"/>
<path d="M19.8795 2.6054C19.5041 21.4733 11.5181 27.3993 11.5181 27.3993C20.3915 20.1961 22.0126 4.12096 22.2685 0.970642L19.8795 2.6054Z" fill="#009B4C"/>
<path d="M19.1972 3.08221L16.0745 5.24487C15.0165 9.48503 12.235 17.9654 6.58678 19.2936C3.73706 19.9577 1.3822 17.9994 0 16.3817C0.102385 16.8415 1.55284 23.1251 8.95871 29C8.95871 29 8.95871 29 8.97577 29C8.99284 28.983 9.07816 28.9489 9.19761 28.8808C9.79485 28.5573 10.375 28.1996 10.9211 27.825C12.2862 26.5819 18.873 19.7363 19.1972 3.08221Z" fill="#054586"/>
<path d="M23.0877 0.374633C22.8317 3.43981 21.2789 19.5661 11.5864 27.3482C23.0194 18.7827 23.6338 0 23.6338 0L23.0877 0.374633Z" fill="#054586"/>
</svg>
