<svg width="90" height="18" viewBox="0 0 90 18" fill="none" xmlns="http://www.w3.org/2000/svg">
<path d="M31.9206 4.03032H29.2162L26.4207 13.055H28.73L29.0035 12.1435H32.1333L32.4371 13.055H34.7161L31.9206 4.03032ZM29.7024 9.92526L30.5836 7.06895L31.4344 9.92526H29.7024Z" fill="#054586"/>
<path d="M48.4814 4.03032H45.777L42.9814 13.055H45.2908L45.5643 12.1435H48.6941L48.9979 13.055H51.2769L48.4814 4.03032ZM46.2632 9.92526L47.1444 7.06895L47.9952 9.92526H46.2632Z" fill="#054586"/>
<path d="M57.0505 4V8.31485L53.0091 4H52.4622V6.52206V13.1463H54.5892V8.80103L58.6306 13.1463H59.0256H59.1775V10.5938V4H57.0505Z" fill="#054586"/>
<path d="M23.9898 8.55787C24.6583 8.2844 25.4179 7.67667 25.4179 6.43083C25.4179 4.24302 23.0174 4.03032 23.0174 4.03032H21.4373H20.3738H19.3103V13.2677H20.3738H22.9567C22.9567 13.2677 25.4179 13.0854 25.4179 10.7761C25.4179 9.49985 24.6279 8.86174 23.9898 8.55787ZM22.3793 11.1103H21.4677V9.43907H22.4097C22.4097 9.43907 23.2301 9.49985 23.2301 10.2899C23.2301 11.0495 22.3793 11.1103 22.3793 11.1103ZM22.3793 7.6159H21.4677V5.94465H22.4097C22.4097 5.94465 23.2301 6.00543 23.2301 6.79547C23.2301 7.55513 22.3793 7.6159 22.3793 7.6159Z" fill="#054586"/>
<path d="M38.0892 4.03036H38.0284H36.9649H35.9014V13.2678H36.9649H38.0284C38.0284 13.2678 42.6167 13.4805 42.6167 8.49714C42.6167 3.96959 38.0892 4.03036 38.0892 4.03036ZM38.0588 10.7761V6.30933C38.0588 6.30933 40.3378 6.12701 40.3378 8.52753C40.3378 10.928 38.0588 10.7761 38.0588 10.7761Z" fill="#054586"/>
<path d="M88.6822 4.06075H86.616L85.0359 8.01096L83.4558 4.06075H81.4199L80.1741 13.2678H82.6961C82.6961 13.2678 83.1215 9.28718 83.1215 9.01371C83.1519 9.2568 84.9143 13.0551 85.0359 13.2678C85.0359 13.2678 86.9198 9.2568 86.9502 9.01371C86.9502 9.28718 87.3756 13.2678 87.3756 13.2678H89.8977L88.6822 4.06075Z" fill="#009B4C"/>
<path d="M65.3756 4.03038H64.3121H63.2485V13.2678H64.3121H65.406V10.685C65.406 10.685 69.3562 10.9281 69.3562 7.34248C69.3562 3.84806 65.3756 4.03038 65.3756 4.03038ZM66.1656 8.31484H65.406V5.94471H66.196C66.196 5.94471 67.1684 6.03587 67.1684 7.12977C67.1684 8.22368 66.1656 8.31484 66.1656 8.31484Z" fill="#009B4C"/>
<path d="M74.9472 4.03032C72.4252 4.03032 70.3589 6.09659 70.3589 8.64903C70.3589 11.2015 72.4252 13.2374 74.9472 13.2374C77.4997 13.2374 79.5659 11.2015 79.5659 8.64903C79.5659 6.09659 77.4997 4.03032 74.9472 4.03032ZM74.9472 10.9584C73.671 10.9584 72.6379 9.92526 72.6379 8.64903C72.6379 7.37281 73.671 6.30929 74.9472 6.30929C76.2538 6.30929 77.287 7.37281 77.287 8.64903C77.287 9.92526 76.2538 10.9584 74.9472 10.9584Z" fill="#009B4C"/>
<path d="M11.6492 1.5299C11.4292 12.6092 6.74951 16.089 6.74951 16.089C11.9492 11.8593 12.8991 2.41985 13.0491 0.569962L11.6492 1.5299Z" fill="#009B4C"/>
<path d="M11.2493 1.80989L9.41941 3.07981C8.79945 5.56965 7.16955 10.5493 3.85976 11.3293C2.18986 11.7193 0.809949 10.5693 0 9.6194C0.0599962 9.88938 0.909943 13.5792 5.24967 17.0289C5.24967 17.0289 5.24967 17.0289 5.25967 17.0289C5.26967 17.0189 5.31967 16.9989 5.38966 16.9589C5.73964 16.769 6.07962 16.559 6.3996 16.339C7.19955 15.609 11.0593 11.5893 11.2493 1.80989Z" fill="#054586"/>
<path d="M13.5291 0.219986C13.3791 2.01987 12.4692 11.4893 6.78955 16.059C13.4891 11.0293 13.8491 0 13.8491 0L13.5291 0.219986Z" fill="#054586"/>
</svg>
