<svg width="45" height="41" viewBox="0 0 45 41" fill="none" xmlns="http://www.w3.org/2000/svg">
<path d="M7.9982 35.1349H6.28289L4.50977 40.859H5.97452L6.14798 40.2808H8.13311L8.32584 40.859H9.77133L7.9982 35.1349ZM6.59126 38.8739L7.15018 37.0622L7.68983 38.8739H6.59126Z" fill="#054586"/>
<path d="M18.5021 35.1349H16.7868L15.0137 40.859H16.4784L16.6519 40.2808H18.637L18.8297 40.859H20.2752L18.5021 35.1349ZM17.0952 38.8739L17.6541 37.0622L18.1937 38.8739H17.0952Z" fill="#054586"/>
<path d="M23.9371 35.1156V37.8524L21.3738 35.1156H21.0269V36.7153V40.9168H22.376V38.1608L24.9393 40.9168H25.1898H25.2862V39.2979V35.1156H23.9371Z" fill="#054586"/>
<path d="M2.96806 38.0066C3.39207 37.8331 3.8739 37.4477 3.8739 36.6575C3.8739 35.2698 2.35132 35.1349 2.35132 35.1349H1.34912H0.674559H0V40.9939H0.674559H2.31277C2.31277 40.9939 3.8739 40.8783 3.8739 39.4135C3.8739 38.604 3.3728 38.1993 2.96806 38.0066ZM1.94658 39.6255H1.36839V38.5655H1.96586C1.96586 38.5655 2.48623 38.604 2.48623 39.1052C2.48623 39.587 1.94658 39.6255 1.94658 39.6255ZM1.94658 37.4091H1.36839V36.3491H1.96586C1.96586 36.3491 2.48623 36.3876 2.48623 36.8887C2.48623 37.3706 1.94658 37.4091 1.94658 37.4091Z" fill="#054586"/>
<path d="M11.9106 35.1349H11.8721H11.1975H10.5229V40.9939H11.1975H11.8721C11.8721 40.9939 14.7823 41.1288 14.7823 37.968C14.7823 35.0963 11.9106 35.1349 11.9106 35.1349ZM11.8913 39.4135V36.5804C11.8913 36.5804 13.3368 36.4647 13.3368 37.9873C13.3368 39.5099 11.8913 39.4135 11.8913 39.4135Z" fill="#054586"/>
<path d="M44.0005 35.1542H42.6899L41.6877 37.6597L40.6855 35.1542H39.3942L38.604 40.9939H40.2037C40.2037 40.9939 40.4735 38.4692 40.4735 38.2957C40.4928 38.4499 41.6106 40.859 41.6877 40.9939C41.6877 40.9939 42.8826 38.4499 42.9019 38.2957C42.9019 38.4692 43.1717 40.9939 43.1717 40.9939H44.7714L44.0005 35.1542Z" fill="#009B4C"/>
<path d="M29.2178 35.1349H28.5432H27.8687V40.9939H28.5432H29.237V39.3557C29.237 39.3557 31.7425 39.5099 31.7425 37.2357C31.7425 35.0192 29.2178 35.1349 29.2178 35.1349ZM29.7189 37.8524H29.237V36.3491H29.7381C29.7381 36.3491 30.3549 36.4069 30.3549 37.1007C30.3549 37.7946 29.7189 37.8524 29.7189 37.8524Z" fill="#009B4C"/>
<path d="M35.2887 35.1349C33.689 35.1349 32.3784 36.4455 32.3784 38.0644C32.3784 39.6833 33.689 40.9746 35.2887 40.9746C36.9076 40.9746 38.2182 39.6833 38.2182 38.0644C38.2182 36.4455 36.9076 35.1349 35.2887 35.1349ZM35.2887 39.5292C34.4792 39.5292 33.8239 38.8739 33.8239 38.0644C33.8239 37.2549 34.4792 36.5804 35.2887 36.5804C36.1174 36.5804 36.7727 37.2549 36.7727 38.0644C36.7727 38.8739 36.1174 39.5292 35.2887 39.5292Z" fill="#009B4C"/>
<path d="M31.4927 2.94882C31.0686 24.3034 22.0488 31.0105 22.0488 31.0105C32.0708 22.858 33.9018 4.66413 34.1909 1.0986L31.4927 2.94882Z" fill="#009B4C"/>
<path d="M30.7218 3.48843L27.1948 5.93612C25.9999 10.7351 22.8584 20.3331 16.479 21.8364C13.2604 22.5881 10.6007 20.3717 9.03955 18.5407C9.15519 19.0611 10.7934 26.1729 19.1579 32.8221C19.1579 32.8221 19.1579 32.8221 19.1772 32.8221C19.1965 32.8028 19.2929 32.7643 19.4278 32.6872C20.1023 32.321 20.7576 31.9163 21.3743 31.4923C22.9162 30.0853 30.3556 22.3375 30.7218 3.48843Z" fill="#054586"/>
<path d="M35.1161 0.424009C34.827 3.89317 33.0731 22.1448 22.126 30.9526C35.039 21.2582 35.7328 0 35.7328 0L35.1161 0.424009Z" fill="#054586"/>
</svg>
