<svg width="392" height="204" viewBox="0 0 392 204" fill="none" xmlns="http://www.w3.org/2000/svg">
<rect width="392" height="204" rx="4" fill="#EAECEF"/>
<path d="M165.328 133.278H161.612L157.771 145.705H160.944L161.32 144.45H165.621L166.038 145.705H169.17L165.328 133.278ZM162.28 141.396L163.491 137.462L164.66 141.396H162.28Z" fill="#959DA5" fill-opacity="0.32"/>
<path d="M188.086 133.278H184.37L180.528 145.705H183.702L184.078 144.45H188.379L188.796 145.705H191.928L188.086 133.278ZM185.038 141.396L186.249 137.462L187.418 141.396H185.038Z" fill="#959DA5" fill-opacity="0.32"/>
<path d="M199.862 133.236V139.178L194.308 133.236H193.557V136.709V145.831H196.48V139.847L202.033 145.831H202.576H202.785V142.316V133.236H199.862Z" fill="#959DA5" fill-opacity="0.32"/>
<path d="M154.43 139.513C155.349 139.136 156.393 138.299 156.393 136.584C156.393 133.571 153.094 133.278 153.094 133.278H150.923H149.461H148V145.998H149.461H153.011C153.011 145.998 156.393 145.747 156.393 142.567C156.393 140.81 155.307 139.931 154.43 139.513ZM152.217 143.027H150.965V140.726H152.259C152.259 140.726 153.387 140.81 153.387 141.898C153.387 142.944 152.217 143.027 152.217 143.027ZM152.217 138.216H150.965V135.914H152.259C152.259 135.914 153.387 135.998 153.387 137.086C153.387 138.132 152.217 138.216 152.217 138.216Z" fill="#959DA5" fill-opacity="0.32"/>
<path d="M173.805 133.278H173.722H172.26H170.799V145.998H172.26H173.722C173.722 145.998 180.027 146.291 180.027 139.429C180.027 133.195 173.805 133.278 173.805 133.278ZM173.764 142.567V136.416C173.764 136.416 176.895 136.165 176.895 139.471C176.895 142.776 173.764 142.567 173.764 142.567Z" fill="#959DA5" fill-opacity="0.32"/>
<path d="M243.329 133.32H240.49L238.319 138.76L236.147 133.32H233.35L231.638 145.998H235.103C235.103 145.998 235.688 140.517 235.688 140.14C235.73 140.475 238.152 145.705 238.319 145.998C238.319 145.998 240.908 140.475 240.949 140.14C240.949 140.517 241.534 145.998 241.534 145.998H245L243.329 133.32Z" fill="#959DA5" fill-opacity="0.32"/>
<path d="M211.302 133.278H209.84H208.379V145.998H209.84H211.344V142.442C211.344 142.442 216.772 142.776 216.772 137.839C216.772 133.027 211.302 133.278 211.302 133.278ZM212.388 139.178H211.344V135.914H212.429C212.429 135.914 213.765 136.04 213.765 137.546C213.765 139.052 212.388 139.178 212.388 139.178Z" fill="#959DA5" fill-opacity="0.32"/>
<path d="M224.456 133.278C220.99 133.278 218.15 136.123 218.15 139.638C218.15 143.153 220.99 145.956 224.456 145.956C227.963 145.956 230.803 143.153 230.803 139.638C230.803 136.123 227.963 133.278 224.456 133.278ZM224.456 142.818C222.702 142.818 221.282 141.396 221.282 139.638C221.282 137.881 222.702 136.416 224.456 136.416C226.251 136.416 227.671 137.881 227.671 139.638C227.671 141.396 226.251 142.818 224.456 142.818Z" fill="#959DA5" fill-opacity="0.32"/>
<path d="M216.229 63.4019C215.311 109.763 195.769 124.324 195.769 124.324C217.482 106.625 221.449 67.1258 222.075 59.385L216.229 63.4019Z" fill="#959DA5" fill-opacity="0.32"/>
<path d="M214.56 64.5734L206.918 69.8873C204.33 80.306 197.523 101.143 183.702 104.407C176.729 106.039 170.966 101.227 167.584 97.2521C167.835 98.3818 171.384 113.822 189.506 128.257C189.506 128.257 189.506 128.257 189.548 128.257C189.59 128.215 189.798 128.132 190.091 127.964C191.552 127.169 192.972 126.29 194.308 125.37C197.649 122.315 213.766 105.495 214.56 64.5734Z" fill="#959DA5" fill-opacity="0.32"/>
<path d="M224.08 57.9205C223.454 65.4521 219.654 105.077 195.937 124.198C223.913 103.152 225.416 57 225.416 57L224.08 57.9205Z" fill="#959DA5" fill-opacity="0.32"/>
</svg>
