<svg width="286" height="204" viewBox="0 0 286 204" fill="none" xmlns="http://www.w3.org/2000/svg">
<rect width="286" height="204" rx="4" fill="#EAECEF"/>
<path d="M111.328 133.278H107.612L103.771 145.705H106.944L107.32 144.45H111.621L112.038 145.705H115.17L111.328 133.278ZM108.28 141.396L109.491 137.462L110.66 141.396H108.28Z" fill="#959DA5" fill-opacity="0.32"/>
<path d="M134.086 133.278H130.37L126.528 145.705H129.702L130.078 144.45H134.379L134.796 145.705H137.928L134.086 133.278ZM131.038 141.396L132.249 137.462L133.418 141.396H131.038Z" fill="#959DA5" fill-opacity="0.32"/>
<path d="M145.862 133.236V139.178L140.308 133.236H139.557V136.709V145.831H142.48V139.847L148.033 145.831H148.576H148.785V142.316V133.236H145.862Z" fill="#959DA5" fill-opacity="0.32"/>
<path d="M100.43 139.513C101.349 139.136 102.393 138.299 102.393 136.584C102.393 133.571 99.0943 133.278 99.0943 133.278H96.9229H95.4615H94V145.998H95.4615H99.0108C99.0108 145.998 102.393 145.747 102.393 142.567C102.393 140.81 101.307 139.931 100.43 139.513ZM98.2174 143.027H96.9647V140.726H98.2591C98.2591 140.726 99.3866 140.81 99.3866 141.898C99.3866 142.944 98.2174 143.027 98.2174 143.027ZM98.2174 138.216H96.9647V135.914H98.2591C98.2591 135.914 99.3866 135.998 99.3866 137.086C99.3866 138.132 98.2174 138.216 98.2174 138.216Z" fill="#959DA5" fill-opacity="0.32"/>
<path d="M119.805 133.278H119.722H118.26H116.799V145.998H118.26H119.722C119.722 145.998 126.027 146.291 126.027 139.429C126.027 133.195 119.805 133.278 119.805 133.278ZM119.764 142.567V136.416C119.764 136.416 122.895 136.165 122.895 139.471C122.895 142.776 119.764 142.567 119.764 142.567Z" fill="#959DA5" fill-opacity="0.32"/>
<path d="M189.329 133.32H186.49L184.319 138.76L182.147 133.32H179.35L177.638 145.998H181.103C181.103 145.998 181.688 140.517 181.688 140.14C181.73 140.475 184.152 145.705 184.319 145.998C184.319 145.998 186.908 140.475 186.949 140.14C186.949 140.517 187.534 145.998 187.534 145.998H191L189.329 133.32Z" fill="#959DA5" fill-opacity="0.32"/>
<path d="M157.302 133.278H155.84H154.379V145.998H155.84H157.344V142.442C157.344 142.442 162.772 142.776 162.772 137.839C162.772 133.027 157.302 133.278 157.302 133.278ZM158.388 139.178H157.344V135.914H158.429C158.429 135.914 159.765 136.04 159.765 137.546C159.765 139.052 158.388 139.178 158.388 139.178Z" fill="#959DA5" fill-opacity="0.32"/>
<path d="M170.456 133.278C166.99 133.278 164.15 136.123 164.15 139.638C164.15 143.153 166.99 145.956 170.456 145.956C173.963 145.956 176.803 143.153 176.803 139.638C176.803 136.123 173.963 133.278 170.456 133.278ZM170.456 142.818C168.702 142.818 167.282 141.396 167.282 139.638C167.282 137.881 168.702 136.416 170.456 136.416C172.251 136.416 173.671 137.881 173.671 139.638C173.671 141.396 172.251 142.818 170.456 142.818Z" fill="#959DA5" fill-opacity="0.32"/>
<path d="M162.229 63.4019C161.311 109.763 141.769 124.324 141.769 124.324C163.482 106.625 167.449 67.1258 168.075 59.385L162.229 63.4019Z" fill="#959DA5" fill-opacity="0.32"/>
<path d="M160.56 64.5734L152.918 69.8873C150.33 80.306 143.523 101.143 129.702 104.407C122.729 106.039 116.966 101.227 113.584 97.2521C113.835 98.3818 117.384 113.822 135.506 128.257C135.506 128.257 135.506 128.257 135.548 128.257C135.59 128.215 135.798 128.132 136.091 127.964C137.552 127.169 138.972 126.29 140.308 125.37C143.649 122.315 159.766 105.495 160.56 64.5734Z" fill="#959DA5" fill-opacity="0.32"/>
<path d="M170.08 57.9205C169.454 65.4521 165.654 105.077 141.937 124.198C169.913 103.152 171.416 57 171.416 57L170.08 57.9205Z" fill="#959DA5" fill-opacity="0.32"/>
</svg>
